<?xml version="1.0" encoding="UTF-8" standalone="no"?>
<!DOCTYPE svg PUBLIC "-//W3C//DTD SVG 1.1//EN" "http://www.w3.org/Graphics/SVG/1.1/DTD/svg11.dtd">
<svg width="100%" height="100%" viewBox="0 0 1660 1660" version="1.1" xmlns="http://www.w3.org/2000/svg" xmlns:xlink="http://www.w3.org/1999/xlink" xml:space="preserve" xmlns:serif="http://www.serif.com/" style="fill-rule:evenodd;clip-rule:evenodd;stroke-linejoin:round;stroke-miterlimit:2;">
    <g transform="matrix(1.56118,0,0,1.56118,-671.575,-50.1352)">
        <path d="M994.498,496.193C1004.82,495.99 1009.98,495.889 1020.3,495.693C1019.34,498.708 1018.86,500.352 1017.9,503.875C1018.14,503.852 1018.26,503.841 1018.5,503.818C1026.86,495.903 1039.06,494.069 1049.9,494.051C1064.05,494.027 1085.91,496.664 1085.3,515.699C1084.41,543.126 1065.24,585.532 1034.7,589.946C1022.67,591.685 1010.16,586.36 1004.7,574.979C1004.54,575.015 1004.46,575.034 1004.3,575.07C1001.02,594.373 997.94,613.709 994.898,633.049L968.098,633.049C976.444,587.402 983.316,541.264 994.498,496.193ZM755.102,582.948C754.126,551.389 772.471,493.637 812.901,494.05C845.714,494.385 860.218,534.929 860.3,562.598C860.407,598.266 838.932,620.972 803.301,620.779C776.863,620.636 755.943,610.126 755.102,582.948ZM652.104,557.05C651.521,527.529 677.286,494.021 708.104,494.051C738.051,494.08 750.344,524.723 750.703,551.052C740.223,550.14 734.983,549.557 724.503,548.083C724.126,537.541 719.205,525.179 707.303,523.986C684.985,521.748 679.002,553.9 678.904,569.678C678.824,582.396 686.719,594.102 699.503,596.915C709.246,599.059 717.303,603.281 720.903,588.806C731.303,591.084 736.503,591.94 746.903,593.183C740.912,613.414 714.88,615.071 697.903,612.375C669.809,607.915 652.654,584.932 652.104,557.05ZM867.301,577.272C867.465,544.48 885.529,493.541 925.1,494.051C949.32,494.363 973.137,512.547 972.5,538.301C971.695,570.812 948.993,604.944 915.5,610.518C890.604,614.661 867.159,605.639 867.301,577.272ZM803.901,608.821C827.263,607.648 833.504,583.48 833.501,563.845C833.499,549.861 828.144,527.164 811.502,527.176C787.748,527.194 782.527,568.252 781.902,586.438C781.45,599.564 790.331,609.503 803.901,608.821ZM916.1,593.16C936.254,587.33 945.116,562.812 945.7,543.731C946.095,530.811 937.715,517.461 923.701,519.046C900.957,521.618 894.278,554.499 894.1,573.273C893.984,585.654 902.358,597.136 916.1,593.16ZM1235.9,508.027L1236.5,508.103C1243.26,500.205 1253,495.393 1263.5,495.54C1267.3,495.594 1269.7,496.019 1271.1,496.451C1269.26,505.849 1268.34,510.329 1266.5,519.014C1266.26,518.962 1266.14,518.935 1265.9,518.882C1251.89,513.789 1232.98,517.239 1229.9,534.33C1224.6,551.482 1223.01,570.116 1220.3,587.775C1209.58,585.923 1204.22,585.154 1193.5,583.878C1197.91,553.248 1203.45,524.902 1213.3,495.658C1223.62,495.816 1228.78,495.906 1239.1,496.112C1237.82,500.93 1237.18,503.302 1235.9,508.027ZM1118.3,525.975C1118.77,538.03 1124.37,555.129 1139.3,554.87C1148.88,554.703 1157.38,548.231 1160.3,538.841C1170.86,539.552 1176.13,540.113 1186.69,541.745C1183.85,552.501 1178.67,562.808 1170.89,570.808C1162.51,579.431 1150.92,584.431 1138.9,584.415C1108.83,584.377 1092.37,553.94 1091.7,527.575C1090.94,497.567 1124.43,494.457 1146.7,494.051C1157.69,493.85 1165.7,494.74 1172.5,496.745C1187.05,501.104 1194.1,515.2 1189.69,529.78C1165.8,526.358 1142.42,525.266 1118.3,525.975ZM1030.7,563.563C1049.13,559.047 1057.81,536.3 1057.9,519.223C1057.94,510.049 1052.77,504.209 1038.3,505.812C1019.65,507.876 1009.7,527.025 1009.7,544.039C1009.7,555.556 1017.88,566.702 1030.7,563.563ZM1120.7,513.285C1135.48,513.342 1150.14,513.822 1164.89,514.78C1165.3,507.667 1159.65,502.766 1146.1,502.119C1136.75,501.673 1125.28,503.972 1120.7,513.285Z" style="fill-rule:nonzero;"/>
    </g>
    <g transform="matrix(0.850378,0,0,0.850378,-8510.29,2544.77)">
        <rect x="10007.7" y="-2992.51" width="1951.23" height="1951.23" style="fill:none;"/>
        <g transform="matrix(105.707,257.961,-266.493,109.203,10068.5,-1728.1)">
            <path d="M0.705,-0.473L0.549,-0.473C0.547,-0.493 0.541,-0.511 0.532,-0.526C0.523,-0.542 0.512,-0.556 0.498,-0.567C0.484,-0.578 0.469,-0.586 0.451,-0.592C0.433,-0.598 0.414,-0.601 0.393,-0.601C0.355,-0.601 0.322,-0.592 0.294,-0.573C0.266,-0.555 0.245,-0.528 0.229,-0.492C0.214,-0.457 0.206,-0.414 0.206,-0.364C0.206,-0.312 0.214,-0.268 0.23,-0.233C0.245,-0.198 0.267,-0.171 0.295,-0.153C0.323,-0.135 0.355,-0.126 0.392,-0.126C0.412,-0.126 0.431,-0.129 0.449,-0.134C0.467,-0.14 0.482,-0.148 0.496,-0.158C0.51,-0.169 0.521,-0.182 0.53,-0.197C0.539,-0.212 0.546,-0.229 0.549,-0.249L0.705,-0.248C0.701,-0.214 0.691,-0.182 0.675,-0.151C0.659,-0.121 0.637,-0.093 0.611,-0.069C0.584,-0.044 0.552,-0.025 0.515,-0.011C0.478,0.003 0.436,0.01 0.389,0.01C0.324,0.01 0.266,-0.005 0.215,-0.034C0.164,-0.063 0.124,-0.106 0.095,-0.162C0.065,-0.217 0.05,-0.285 0.05,-0.364C0.05,-0.443 0.065,-0.51 0.095,-0.566C0.125,-0.622 0.165,-0.664 0.217,-0.693C0.268,-0.723 0.325,-0.737 0.389,-0.737C0.431,-0.737 0.47,-0.731 0.507,-0.719C0.543,-0.708 0.575,-0.69 0.603,-0.668C0.631,-0.645 0.653,-0.618 0.671,-0.585C0.689,-0.552 0.7,-0.515 0.705,-0.473Z" style="fill-rule:nonzero;"/>
        </g>
        <g transform="matrix(165.315,224.475,-231.899,170.783,10155.8,-1517.5)">
            <path d="M0.732,-0.364C0.732,-0.284 0.717,-0.217 0.687,-0.161C0.657,-0.106 0.616,-0.063 0.564,-0.034C0.513,-0.005 0.455,0.01 0.391,0.01C0.326,0.01 0.268,-0.005 0.217,-0.034C0.166,-0.063 0.125,-0.106 0.095,-0.162C0.065,-0.217 0.05,-0.285 0.05,-0.364C0.05,-0.443 0.065,-0.51 0.095,-0.566C0.125,-0.622 0.166,-0.664 0.217,-0.693C0.268,-0.723 0.326,-0.737 0.391,-0.737C0.455,-0.737 0.513,-0.723 0.564,-0.693C0.616,-0.664 0.657,-0.622 0.687,-0.566C0.717,-0.51 0.732,-0.443 0.732,-0.364ZM0.576,-0.364C0.576,-0.415 0.568,-0.458 0.553,-0.494C0.537,-0.529 0.516,-0.556 0.488,-0.574C0.461,-0.592 0.428,-0.601 0.391,-0.601C0.354,-0.601 0.321,-0.592 0.294,-0.574C0.266,-0.556 0.244,-0.529 0.229,-0.494C0.214,-0.458 0.206,-0.415 0.206,-0.364C0.206,-0.312 0.214,-0.269 0.229,-0.234C0.244,-0.198 0.266,-0.172 0.294,-0.153C0.321,-0.135 0.354,-0.126 0.391,-0.126C0.428,-0.126 0.461,-0.135 0.488,-0.153C0.516,-0.172 0.537,-0.198 0.553,-0.234C0.568,-0.269 0.576,-0.312 0.576,-0.364Z" style="fill-rule:nonzero;"/>
        </g>
        <g transform="matrix(215.527,176.822,-182.67,222.656,10297,-1328.03)">
            <path d="M0.732,-0.364C0.732,-0.284 0.717,-0.217 0.687,-0.161C0.657,-0.106 0.616,-0.063 0.564,-0.034C0.513,-0.005 0.455,0.01 0.391,0.01C0.326,0.01 0.268,-0.005 0.217,-0.034C0.166,-0.063 0.125,-0.106 0.095,-0.162C0.065,-0.217 0.05,-0.285 0.05,-0.364C0.05,-0.443 0.065,-0.51 0.095,-0.566C0.125,-0.622 0.166,-0.664 0.217,-0.693C0.268,-0.723 0.326,-0.737 0.391,-0.737C0.455,-0.737 0.513,-0.723 0.564,-0.693C0.616,-0.664 0.657,-0.622 0.687,-0.566C0.717,-0.51 0.732,-0.443 0.732,-0.364ZM0.576,-0.364C0.576,-0.415 0.568,-0.458 0.553,-0.494C0.537,-0.529 0.516,-0.556 0.488,-0.574C0.461,-0.592 0.428,-0.601 0.391,-0.601C0.354,-0.601 0.321,-0.592 0.294,-0.574C0.266,-0.556 0.244,-0.529 0.229,-0.494C0.214,-0.458 0.206,-0.415 0.206,-0.364C0.206,-0.312 0.214,-0.269 0.229,-0.234C0.244,-0.198 0.266,-0.172 0.294,-0.153C0.321,-0.135 0.354,-0.126 0.391,-0.126C0.428,-0.126 0.461,-0.135 0.488,-0.153C0.516,-0.172 0.537,-0.198 0.553,-0.234C0.568,-0.269 0.576,-0.312 0.576,-0.364Z" style="fill-rule:nonzero;"/>
        </g>
        <g transform="matrix(250.467,122.411,-126.46,258.751,10480.5,-1181.29)">
            <path d="M0.063,-0L0.063,-0.727L0.35,-0.727C0.405,-0.727 0.452,-0.717 0.491,-0.696C0.53,-0.675 0.56,-0.646 0.58,-0.609C0.601,-0.572 0.611,-0.529 0.611,-0.481C0.611,-0.433 0.6,-0.39 0.58,-0.353C0.559,-0.316 0.529,-0.287 0.489,-0.267C0.45,-0.246 0.402,-0.236 0.346,-0.236L0.163,-0.236L0.163,-0.359L0.321,-0.359C0.351,-0.359 0.375,-0.364 0.395,-0.374C0.414,-0.385 0.428,-0.399 0.438,-0.417C0.448,-0.436 0.452,-0.457 0.452,-0.481C0.452,-0.505 0.448,-0.526 0.438,-0.544C0.428,-0.562 0.414,-0.576 0.395,-0.586C0.375,-0.597 0.35,-0.602 0.321,-0.602L0.217,-0.602L0.217,-0L0.063,-0Z" style="fill-rule:nonzero;"/>
        </g>
        <g transform="matrix(269.752,70.3705,-72.6979,278.674,10655.8,-1096.56)">
            <path d="M0.063,-0L0.063,-0.727L0.553,-0.727L0.553,-0.6L0.217,-0.6L0.217,-0.427L0.528,-0.427L0.528,-0.3L0.217,-0.3L0.217,-0.127L0.555,-0.127L0.555,-0L0.063,-0Z" style="fill-rule:nonzero;"/>
        </g>
        <g transform="matrix(278.495,12.5892,-13.0055,287.706,10835.6,-1049.29)">
            <path d="M0.063,-0L0.063,-0.727L0.35,-0.727C0.405,-0.727 0.452,-0.718 0.491,-0.698C0.53,-0.678 0.56,-0.651 0.58,-0.615C0.601,-0.58 0.611,-0.538 0.611,-0.49C0.611,-0.441 0.6,-0.4 0.58,-0.365C0.559,-0.331 0.529,-0.304 0.489,-0.286C0.45,-0.267 0.402,-0.258 0.346,-0.258L0.154,-0.258L0.154,-0.381L0.321,-0.381C0.351,-0.381 0.375,-0.385 0.395,-0.393C0.414,-0.402 0.428,-0.414 0.438,-0.43C0.448,-0.446 0.452,-0.466 0.452,-0.49C0.452,-0.514 0.448,-0.534 0.438,-0.551C0.428,-0.567 0.414,-0.58 0.394,-0.589C0.375,-0.597 0.35,-0.602 0.321,-0.602L0.217,-0.602L0.217,-0L0.063,-0ZM0.456,-0.331L0.637,-0L0.467,-0L0.29,-0.331L0.456,-0.331Z" style="fill-rule:nonzero;"/>
        </g>
        <g transform="matrix(271.224,-64.463,66.595,280.195,11103.3,-1046.92)">
            <path d="M0.036,-0.6L0.036,-0.727L0.633,-0.727L0.633,-0.6L0.41,-0.6L0.41,-0L0.258,-0L0.258,-0.6L0.036,-0.6Z" style="fill-rule:nonzero;"/>
        </g>
        <g transform="matrix(251.483,-120.31,124.289,259.8,11298.8,-1094.57)">
            <path d="M0.458,-0.518C0.455,-0.547 0.443,-0.569 0.421,-0.585C0.4,-0.601 0.37,-0.609 0.333,-0.609C0.308,-0.609 0.287,-0.605 0.27,-0.598C0.253,-0.591 0.239,-0.582 0.23,-0.569C0.221,-0.557 0.217,-0.543 0.217,-0.527C0.216,-0.514 0.219,-0.503 0.225,-0.493C0.231,-0.484 0.239,-0.475 0.25,-0.468C0.261,-0.461 0.273,-0.455 0.287,-0.45C0.301,-0.445 0.316,-0.441 0.332,-0.437L0.397,-0.422C0.429,-0.414 0.458,-0.405 0.484,-0.393C0.511,-0.381 0.534,-0.367 0.553,-0.349C0.573,-0.332 0.588,-0.312 0.599,-0.288C0.609,-0.265 0.615,-0.238 0.615,-0.208C0.615,-0.163 0.604,-0.125 0.581,-0.092C0.559,-0.06 0.527,-0.034 0.485,-0.017C0.443,0.001 0.392,0.01 0.333,0.01C0.274,0.01 0.223,0.001 0.18,-0.017C0.136,-0.035 0.102,-0.061 0.078,-0.097C0.054,-0.132 0.041,-0.176 0.04,-0.228L0.189,-0.228C0.19,-0.204 0.197,-0.184 0.21,-0.167C0.222,-0.151 0.239,-0.139 0.26,-0.131C0.281,-0.123 0.304,-0.119 0.331,-0.119C0.357,-0.119 0.38,-0.122 0.399,-0.13C0.418,-0.138 0.433,-0.148 0.444,-0.162C0.455,-0.175 0.46,-0.191 0.46,-0.208C0.46,-0.224 0.455,-0.238 0.445,-0.249C0.436,-0.26 0.422,-0.27 0.404,-0.278C0.385,-0.286 0.363,-0.293 0.336,-0.299L0.257,-0.319C0.196,-0.334 0.147,-0.357 0.112,-0.389C0.076,-0.421 0.059,-0.463 0.059,-0.517C0.059,-0.561 0.07,-0.6 0.094,-0.632C0.118,-0.665 0.151,-0.691 0.192,-0.71C0.234,-0.728 0.281,-0.737 0.335,-0.737C0.388,-0.737 0.436,-0.728 0.476,-0.71C0.516,-0.691 0.548,-0.665 0.57,-0.632C0.593,-0.6 0.604,-0.561 0.605,-0.518L0.458,-0.518Z" style="fill-rule:nonzero;"/>
        </g>
        <g transform="matrix(217.298,-174.642,180.418,224.485,11479.3,-1180.07)">
            <path d="M0.732,-0.364C0.732,-0.284 0.717,-0.217 0.687,-0.161C0.657,-0.106 0.616,-0.063 0.564,-0.034C0.513,-0.005 0.455,0.01 0.391,0.01C0.326,0.01 0.268,-0.005 0.217,-0.034C0.166,-0.063 0.125,-0.106 0.095,-0.162C0.065,-0.217 0.05,-0.285 0.05,-0.364C0.05,-0.443 0.065,-0.51 0.095,-0.566C0.125,-0.622 0.166,-0.664 0.217,-0.693C0.268,-0.723 0.326,-0.737 0.391,-0.737C0.455,-0.737 0.513,-0.723 0.564,-0.693C0.616,-0.664 0.657,-0.622 0.687,-0.566C0.717,-0.51 0.732,-0.443 0.732,-0.364ZM0.576,-0.364C0.576,-0.415 0.568,-0.458 0.553,-0.494C0.537,-0.529 0.516,-0.556 0.488,-0.574C0.461,-0.592 0.428,-0.601 0.391,-0.601C0.354,-0.601 0.321,-0.592 0.294,-0.574C0.266,-0.556 0.244,-0.529 0.229,-0.494C0.214,-0.458 0.206,-0.415 0.206,-0.364C0.206,-0.312 0.214,-0.269 0.229,-0.234C0.244,-0.198 0.266,-0.172 0.294,-0.153C0.321,-0.135 0.354,-0.126 0.391,-0.126C0.428,-0.126 0.461,-0.135 0.488,-0.153C0.516,-0.172 0.537,-0.198 0.553,-0.234C0.568,-0.269 0.576,-0.312 0.576,-0.364Z" style="fill-rule:nonzero;"/>
        </g>
        <g transform="matrix(170.637,-220.456,227.748,176.281,11660.8,-1329.11)">
            <path d="M0.063,-0L0.063,-0.727L0.35,-0.727C0.405,-0.727 0.452,-0.718 0.491,-0.698C0.53,-0.678 0.56,-0.651 0.58,-0.615C0.601,-0.58 0.611,-0.538 0.611,-0.49C0.611,-0.441 0.6,-0.4 0.58,-0.365C0.559,-0.331 0.529,-0.304 0.489,-0.286C0.45,-0.267 0.402,-0.258 0.346,-0.258L0.154,-0.258L0.154,-0.381L0.321,-0.381C0.351,-0.381 0.375,-0.385 0.395,-0.393C0.414,-0.402 0.428,-0.414 0.438,-0.43C0.448,-0.446 0.452,-0.466 0.452,-0.49C0.452,-0.514 0.448,-0.534 0.438,-0.551C0.428,-0.567 0.414,-0.58 0.394,-0.589C0.375,-0.597 0.35,-0.602 0.321,-0.602L0.217,-0.602L0.217,-0L0.063,-0ZM0.456,-0.331L0.637,-0L0.467,-0L0.29,-0.331L0.456,-0.331Z" style="fill-rule:nonzero;"/>
        </g>
        <g transform="matrix(138.103,-242.168,250.178,142.671,11775.8,-1483.64)">
            <rect x="0.063" y="-0.727" width="0.154" height="0.727" style="fill-rule:nonzero;"/>
        </g>
        <g transform="matrix(99.6372,-260.366,268.977,102.933,11823.2,-1559.71)">
            <path d="M0.458,-0.518C0.455,-0.547 0.443,-0.569 0.421,-0.585C0.4,-0.601 0.37,-0.609 0.333,-0.609C0.308,-0.609 0.287,-0.605 0.27,-0.598C0.253,-0.591 0.239,-0.582 0.23,-0.569C0.221,-0.557 0.217,-0.543 0.217,-0.527C0.216,-0.514 0.219,-0.503 0.225,-0.493C0.231,-0.484 0.239,-0.475 0.25,-0.468C0.261,-0.461 0.273,-0.455 0.287,-0.45C0.301,-0.445 0.316,-0.441 0.332,-0.437L0.397,-0.422C0.429,-0.414 0.458,-0.405 0.484,-0.393C0.511,-0.381 0.534,-0.367 0.553,-0.349C0.573,-0.332 0.588,-0.312 0.599,-0.288C0.609,-0.265 0.615,-0.238 0.615,-0.208C0.615,-0.163 0.604,-0.125 0.581,-0.092C0.559,-0.06 0.527,-0.034 0.485,-0.017C0.443,0.001 0.392,0.01 0.333,0.01C0.274,0.01 0.223,0.001 0.18,-0.017C0.136,-0.035 0.102,-0.061 0.078,-0.097C0.054,-0.132 0.041,-0.176 0.04,-0.228L0.189,-0.228C0.19,-0.204 0.197,-0.184 0.21,-0.167C0.222,-0.151 0.239,-0.139 0.26,-0.131C0.281,-0.123 0.304,-0.119 0.331,-0.119C0.357,-0.119 0.38,-0.122 0.399,-0.13C0.418,-0.138 0.433,-0.148 0.444,-0.162C0.455,-0.175 0.46,-0.191 0.46,-0.208C0.46,-0.224 0.455,-0.238 0.445,-0.249C0.436,-0.26 0.422,-0.27 0.404,-0.278C0.385,-0.286 0.363,-0.293 0.336,-0.299L0.257,-0.319C0.196,-0.334 0.147,-0.357 0.112,-0.389C0.076,-0.421 0.059,-0.463 0.059,-0.517C0.059,-0.561 0.07,-0.6 0.094,-0.632C0.118,-0.665 0.151,-0.691 0.192,-0.71C0.234,-0.728 0.281,-0.737 0.335,-0.737C0.388,-0.737 0.436,-0.728 0.476,-0.71C0.516,-0.691 0.548,-0.665 0.57,-0.632C0.593,-0.6 0.604,-0.561 0.605,-0.518L0.458,-0.518Z" style="fill-rule:nonzero;"/>
        </g>
        <g transform="matrix(-105.707,-257.961,266.493,-109.203,11898,-2305.69)">
            <path d="M0.705,-0.473L0.549,-0.473C0.547,-0.493 0.541,-0.511 0.532,-0.526C0.523,-0.542 0.512,-0.556 0.498,-0.567C0.484,-0.578 0.469,-0.586 0.451,-0.592C0.433,-0.598 0.414,-0.601 0.393,-0.601C0.355,-0.601 0.322,-0.592 0.294,-0.573C0.266,-0.555 0.245,-0.528 0.229,-0.492C0.214,-0.457 0.206,-0.414 0.206,-0.364C0.206,-0.312 0.214,-0.268 0.23,-0.233C0.245,-0.198 0.267,-0.171 0.295,-0.153C0.323,-0.135 0.355,-0.126 0.392,-0.126C0.412,-0.126 0.431,-0.129 0.449,-0.134C0.467,-0.14 0.482,-0.148 0.496,-0.158C0.51,-0.169 0.521,-0.182 0.53,-0.197C0.539,-0.212 0.546,-0.229 0.549,-0.249L0.705,-0.248C0.701,-0.214 0.691,-0.182 0.675,-0.151C0.659,-0.121 0.637,-0.093 0.611,-0.069C0.584,-0.044 0.552,-0.025 0.515,-0.011C0.478,0.003 0.436,0.01 0.389,0.01C0.324,0.01 0.266,-0.005 0.215,-0.034C0.164,-0.063 0.124,-0.106 0.095,-0.162C0.065,-0.217 0.05,-0.285 0.05,-0.364C0.05,-0.443 0.065,-0.51 0.095,-0.566C0.125,-0.622 0.165,-0.664 0.217,-0.693C0.268,-0.723 0.325,-0.737 0.389,-0.737C0.431,-0.737 0.47,-0.731 0.507,-0.719C0.543,-0.708 0.575,-0.69 0.603,-0.668C0.631,-0.645 0.653,-0.618 0.671,-0.585C0.689,-0.552 0.7,-0.515 0.705,-0.473Z" style="fill-rule:nonzero;"/>
        </g>
        <g transform="matrix(-165.315,-224.475,231.899,-170.783,11810.8,-2516.3)">
            <path d="M0.732,-0.364C0.732,-0.284 0.717,-0.217 0.687,-0.161C0.657,-0.106 0.616,-0.063 0.564,-0.034C0.513,-0.005 0.455,0.01 0.391,0.01C0.326,0.01 0.268,-0.005 0.217,-0.034C0.166,-0.063 0.125,-0.106 0.095,-0.162C0.065,-0.217 0.05,-0.285 0.05,-0.364C0.05,-0.443 0.065,-0.51 0.095,-0.566C0.125,-0.622 0.166,-0.664 0.217,-0.693C0.268,-0.723 0.326,-0.737 0.391,-0.737C0.455,-0.737 0.513,-0.723 0.564,-0.693C0.616,-0.664 0.657,-0.622 0.687,-0.566C0.717,-0.51 0.732,-0.443 0.732,-0.364ZM0.576,-0.364C0.576,-0.415 0.568,-0.458 0.553,-0.494C0.537,-0.529 0.516,-0.556 0.488,-0.574C0.461,-0.592 0.428,-0.601 0.391,-0.601C0.354,-0.601 0.321,-0.592 0.294,-0.574C0.266,-0.556 0.244,-0.529 0.229,-0.494C0.214,-0.458 0.206,-0.415 0.206,-0.364C0.206,-0.312 0.214,-0.269 0.229,-0.234C0.244,-0.198 0.266,-0.172 0.294,-0.153C0.321,-0.135 0.354,-0.126 0.391,-0.126C0.428,-0.126 0.461,-0.135 0.488,-0.153C0.516,-0.172 0.537,-0.198 0.553,-0.234C0.568,-0.269 0.576,-0.312 0.576,-0.364Z" style="fill-rule:nonzero;"/>
        </g>
        <g transform="matrix(-215.527,-176.822,182.67,-222.656,11669.5,-2705.77)">
            <path d="M0.732,-0.364C0.732,-0.284 0.717,-0.217 0.687,-0.161C0.657,-0.106 0.616,-0.063 0.564,-0.034C0.513,-0.005 0.455,0.01 0.391,0.01C0.326,0.01 0.268,-0.005 0.217,-0.034C0.166,-0.063 0.125,-0.106 0.095,-0.162C0.065,-0.217 0.05,-0.285 0.05,-0.364C0.05,-0.443 0.065,-0.51 0.095,-0.566C0.125,-0.622 0.166,-0.664 0.217,-0.693C0.268,-0.723 0.326,-0.737 0.391,-0.737C0.455,-0.737 0.513,-0.723 0.564,-0.693C0.616,-0.664 0.657,-0.622 0.687,-0.566C0.717,-0.51 0.732,-0.443 0.732,-0.364ZM0.576,-0.364C0.576,-0.415 0.568,-0.458 0.553,-0.494C0.537,-0.529 0.516,-0.556 0.488,-0.574C0.461,-0.592 0.428,-0.601 0.391,-0.601C0.354,-0.601 0.321,-0.592 0.294,-0.574C0.266,-0.556 0.244,-0.529 0.229,-0.494C0.214,-0.458 0.206,-0.415 0.206,-0.364C0.206,-0.312 0.214,-0.269 0.229,-0.234C0.244,-0.198 0.266,-0.172 0.294,-0.153C0.321,-0.135 0.354,-0.126 0.391,-0.126C0.428,-0.126 0.461,-0.135 0.488,-0.153C0.516,-0.172 0.537,-0.198 0.553,-0.234C0.568,-0.269 0.576,-0.312 0.576,-0.364Z" style="fill-rule:nonzero;"/>
        </g>
        <g transform="matrix(-250.467,-122.411,126.46,-258.751,11486.1,-2852.5)">
            <path d="M0.063,-0L0.063,-0.727L0.35,-0.727C0.405,-0.727 0.452,-0.717 0.491,-0.696C0.53,-0.675 0.56,-0.646 0.58,-0.609C0.601,-0.572 0.611,-0.529 0.611,-0.481C0.611,-0.433 0.6,-0.39 0.58,-0.353C0.559,-0.316 0.529,-0.287 0.489,-0.267C0.45,-0.246 0.402,-0.236 0.346,-0.236L0.163,-0.236L0.163,-0.359L0.321,-0.359C0.351,-0.359 0.375,-0.364 0.395,-0.374C0.414,-0.385 0.428,-0.399 0.438,-0.417C0.448,-0.436 0.452,-0.457 0.452,-0.481C0.452,-0.505 0.448,-0.526 0.438,-0.544C0.428,-0.562 0.414,-0.576 0.395,-0.586C0.375,-0.597 0.35,-0.602 0.321,-0.602L0.217,-0.602L0.217,-0L0.063,-0Z" style="fill-rule:nonzero;"/>
        </g>
        <g transform="matrix(-269.752,-70.3705,72.6979,-278.674,11310.7,-2937.23)">
            <path d="M0.063,-0L0.063,-0.727L0.553,-0.727L0.553,-0.6L0.217,-0.6L0.217,-0.427L0.528,-0.427L0.528,-0.3L0.217,-0.3L0.217,-0.127L0.555,-0.127L0.555,-0L0.063,-0Z" style="fill-rule:nonzero;"/>
        </g>
        <g transform="matrix(-278.495,-12.5892,13.0055,-287.706,11130.9,-2984.5)">
            <path d="M0.063,-0L0.063,-0.727L0.35,-0.727C0.405,-0.727 0.452,-0.718 0.491,-0.698C0.53,-0.678 0.56,-0.651 0.58,-0.615C0.601,-0.58 0.611,-0.538 0.611,-0.49C0.611,-0.441 0.6,-0.4 0.58,-0.365C0.559,-0.331 0.529,-0.304 0.489,-0.286C0.45,-0.267 0.402,-0.258 0.346,-0.258L0.154,-0.258L0.154,-0.381L0.321,-0.381C0.351,-0.381 0.375,-0.385 0.395,-0.393C0.414,-0.402 0.428,-0.414 0.438,-0.43C0.448,-0.446 0.452,-0.466 0.452,-0.49C0.452,-0.514 0.448,-0.534 0.438,-0.551C0.428,-0.567 0.414,-0.58 0.394,-0.589C0.375,-0.597 0.35,-0.602 0.321,-0.602L0.217,-0.602L0.217,-0L0.063,-0ZM0.456,-0.331L0.637,-0L0.467,-0L0.29,-0.331L0.456,-0.331Z" style="fill-rule:nonzero;"/>
        </g>
        <g transform="matrix(-271.224,64.463,-66.595,-280.195,10863.2,-2986.87)">
            <path d="M0.036,-0.6L0.036,-0.727L0.633,-0.727L0.633,-0.6L0.41,-0.6L0.41,-0L0.258,-0L0.258,-0.6L0.036,-0.6Z" style="fill-rule:nonzero;"/>
        </g>
        <g transform="matrix(-251.483,120.31,-124.289,-259.8,10667.7,-2939.22)">
            <path d="M0.458,-0.518C0.455,-0.547 0.443,-0.569 0.421,-0.585C0.4,-0.601 0.37,-0.609 0.333,-0.609C0.308,-0.609 0.287,-0.605 0.27,-0.598C0.253,-0.591 0.239,-0.582 0.23,-0.569C0.221,-0.557 0.217,-0.543 0.217,-0.527C0.216,-0.514 0.219,-0.503 0.225,-0.493C0.231,-0.484 0.239,-0.475 0.25,-0.468C0.261,-0.461 0.273,-0.455 0.287,-0.45C0.301,-0.445 0.316,-0.441 0.332,-0.437L0.397,-0.422C0.429,-0.414 0.458,-0.405 0.484,-0.393C0.511,-0.381 0.534,-0.367 0.553,-0.349C0.573,-0.332 0.588,-0.312 0.599,-0.288C0.609,-0.265 0.615,-0.238 0.615,-0.208C0.615,-0.163 0.604,-0.125 0.581,-0.092C0.559,-0.06 0.527,-0.034 0.485,-0.017C0.443,0.001 0.392,0.01 0.333,0.01C0.274,0.01 0.223,0.001 0.18,-0.017C0.136,-0.035 0.102,-0.061 0.078,-0.097C0.054,-0.132 0.041,-0.176 0.04,-0.228L0.189,-0.228C0.19,-0.204 0.197,-0.184 0.21,-0.167C0.222,-0.151 0.239,-0.139 0.26,-0.131C0.281,-0.123 0.304,-0.119 0.331,-0.119C0.357,-0.119 0.38,-0.122 0.399,-0.13C0.418,-0.138 0.433,-0.148 0.444,-0.162C0.455,-0.175 0.46,-0.191 0.46,-0.208C0.46,-0.224 0.455,-0.238 0.445,-0.249C0.436,-0.26 0.422,-0.27 0.404,-0.278C0.385,-0.286 0.363,-0.293 0.336,-0.299L0.257,-0.319C0.196,-0.334 0.147,-0.357 0.112,-0.389C0.076,-0.421 0.059,-0.463 0.059,-0.517C0.059,-0.561 0.07,-0.6 0.094,-0.632C0.118,-0.665 0.151,-0.691 0.192,-0.71C0.234,-0.728 0.281,-0.737 0.335,-0.737C0.388,-0.737 0.436,-0.728 0.476,-0.71C0.516,-0.691 0.548,-0.665 0.57,-0.632C0.593,-0.6 0.604,-0.561 0.605,-0.518L0.458,-0.518Z" style="fill-rule:nonzero;"/>
        </g>
        <g transform="matrix(-217.298,174.642,-180.418,-224.485,10487.2,-2853.73)">
            <path d="M0.732,-0.364C0.732,-0.284 0.717,-0.217 0.687,-0.161C0.657,-0.106 0.616,-0.063 0.564,-0.034C0.513,-0.005 0.455,0.01 0.391,0.01C0.326,0.01 0.268,-0.005 0.217,-0.034C0.166,-0.063 0.125,-0.106 0.095,-0.162C0.065,-0.217 0.05,-0.285 0.05,-0.364C0.05,-0.443 0.065,-0.51 0.095,-0.566C0.125,-0.622 0.166,-0.664 0.217,-0.693C0.268,-0.723 0.326,-0.737 0.391,-0.737C0.455,-0.737 0.513,-0.723 0.564,-0.693C0.616,-0.664 0.657,-0.622 0.687,-0.566C0.717,-0.51 0.732,-0.443 0.732,-0.364ZM0.576,-0.364C0.576,-0.415 0.568,-0.458 0.553,-0.494C0.537,-0.529 0.516,-0.556 0.488,-0.574C0.461,-0.592 0.428,-0.601 0.391,-0.601C0.354,-0.601 0.321,-0.592 0.294,-0.574C0.266,-0.556 0.244,-0.529 0.229,-0.494C0.214,-0.458 0.206,-0.415 0.206,-0.364C0.206,-0.312 0.214,-0.269 0.229,-0.234C0.244,-0.198 0.266,-0.172 0.294,-0.153C0.321,-0.135 0.354,-0.126 0.391,-0.126C0.428,-0.126 0.461,-0.135 0.488,-0.153C0.516,-0.172 0.537,-0.198 0.553,-0.234C0.568,-0.269 0.576,-0.312 0.576,-0.364Z" style="fill-rule:nonzero;"/>
        </g>
        <g transform="matrix(-170.637,220.456,-227.748,-176.281,10305.8,-2704.68)">
            <path d="M0.063,-0L0.063,-0.727L0.35,-0.727C0.405,-0.727 0.452,-0.718 0.491,-0.698C0.53,-0.678 0.56,-0.651 0.58,-0.615C0.601,-0.58 0.611,-0.538 0.611,-0.49C0.611,-0.441 0.6,-0.4 0.58,-0.365C0.559,-0.331 0.529,-0.304 0.489,-0.286C0.45,-0.267 0.402,-0.258 0.346,-0.258L0.154,-0.258L0.154,-0.381L0.321,-0.381C0.351,-0.381 0.375,-0.385 0.395,-0.393C0.414,-0.402 0.428,-0.414 0.438,-0.43C0.448,-0.446 0.452,-0.466 0.452,-0.49C0.452,-0.514 0.448,-0.534 0.438,-0.551C0.428,-0.567 0.414,-0.58 0.394,-0.589C0.375,-0.597 0.35,-0.602 0.321,-0.602L0.217,-0.602L0.217,-0L0.063,-0ZM0.456,-0.331L0.637,-0L0.467,-0L0.29,-0.331L0.456,-0.331Z" style="fill-rule:nonzero;"/>
        </g>
        <g transform="matrix(-138.103,242.168,-250.178,-142.671,10190.7,-2550.16)">
            <rect x="0.063" y="-0.727" width="0.154" height="0.727" style="fill-rule:nonzero;"/>
        </g>
        <g transform="matrix(-99.6372,260.366,-268.977,-102.933,10143.4,-2474.08)">
            <path d="M0.458,-0.518C0.455,-0.547 0.443,-0.569 0.421,-0.585C0.4,-0.601 0.37,-0.609 0.333,-0.609C0.308,-0.609 0.287,-0.605 0.27,-0.598C0.253,-0.591 0.239,-0.582 0.23,-0.569C0.221,-0.557 0.217,-0.543 0.217,-0.527C0.216,-0.514 0.219,-0.503 0.225,-0.493C0.231,-0.484 0.239,-0.475 0.25,-0.468C0.261,-0.461 0.273,-0.455 0.287,-0.45C0.301,-0.445 0.316,-0.441 0.332,-0.437L0.397,-0.422C0.429,-0.414 0.458,-0.405 0.484,-0.393C0.511,-0.381 0.534,-0.367 0.553,-0.349C0.573,-0.332 0.588,-0.312 0.599,-0.288C0.609,-0.265 0.615,-0.238 0.615,-0.208C0.615,-0.163 0.604,-0.125 0.581,-0.092C0.559,-0.06 0.527,-0.034 0.485,-0.017C0.443,0.001 0.392,0.01 0.333,0.01C0.274,0.01 0.223,0.001 0.18,-0.017C0.136,-0.035 0.102,-0.061 0.078,-0.097C0.054,-0.132 0.041,-0.176 0.04,-0.228L0.189,-0.228C0.19,-0.204 0.197,-0.184 0.21,-0.167C0.222,-0.151 0.239,-0.139 0.26,-0.131C0.281,-0.123 0.304,-0.119 0.331,-0.119C0.357,-0.119 0.38,-0.122 0.399,-0.13C0.418,-0.138 0.433,-0.148 0.444,-0.162C0.455,-0.175 0.46,-0.191 0.46,-0.208C0.46,-0.224 0.455,-0.238 0.445,-0.249C0.436,-0.26 0.422,-0.27 0.404,-0.278C0.385,-0.286 0.363,-0.293 0.336,-0.299L0.257,-0.319C0.196,-0.334 0.147,-0.357 0.112,-0.389C0.076,-0.421 0.059,-0.463 0.059,-0.517C0.059,-0.561 0.07,-0.6 0.094,-0.632C0.118,-0.665 0.151,-0.691 0.192,-0.71C0.234,-0.728 0.281,-0.737 0.335,-0.737C0.388,-0.737 0.436,-0.728 0.476,-0.71C0.516,-0.691 0.548,-0.665 0.57,-0.632C0.593,-0.6 0.604,-0.561 0.605,-0.518L0.458,-0.518Z" style="fill-rule:nonzero;"/>
        </g>
        <g transform="matrix(2.37859,0,0,2.37859,-10760.1,1534.22)">
            <circle cx="9487.07" cy="-1492.95" r="22.812"/>
        </g>
        <g transform="matrix(2.37859,0,0,2.37859,-12405.1,1534.22)">
            <circle cx="9487.07" cy="-1492.95" r="22.812"/>
        </g>
    </g>
</svg>
